<svg width="20" height="26" viewBox="0 0 20 26" fill="none" xmlns="http://www.w3.org/2000/svg">
<mask id="path-1-inside-1" fill="white">
<path fill-rule="evenodd" clip-rule="evenodd" d="M3.00619 1.31317C2.37099 1.31329 1.87982 1.81003 1.87866 2.39264L1.8376 22.9473C1.83643 23.5299 2.32566 24.0265 2.96091 24.0265L6.00088 24.0261C6.4637 24.0261 6.89247 23.7836 7.12136 23.3809L7.12139 23.3809C7.16674 23.3011 7.21225 23.2211 7.25835 23.1407C7.46999 22.7717 7.69345 22.3972 7.95124 22.0671C8.48487 21.3839 9.18807 20.8671 10.2818 20.867C11.3785 20.8668 12.0662 21.3866 12.5891 22.0697C12.8407 22.3983 13.0607 22.7722 13.2716 23.1379L13.3402 23.257C13.6178 23.7395 14.1343 24.0252 14.6913 24.0251L17.5901 24.0248C18.2253 24.0247 18.7166 23.528 18.7177 22.9454L18.7588 2.39073C18.7599 1.8081 18.2707 1.31145 17.6355 1.31152L14.8487 1.31184C14.2286 1.31191 13.6514 1.62654 13.3388 2.16274L13.2955 2.23715C13.082 2.60297 12.8618 2.97592 12.6118 3.30223C12.3592 3.63212 12.061 3.93524 11.6782 4.15372C11.2905 4.37503 10.8427 4.49421 10.3145 4.49427C9.22607 4.49439 8.51466 3.99037 7.97584 3.3088C7.71519 2.9791 7.49136 2.60458 7.28138 2.23112C7.20876 2.10195 7.13858 1.97443 7.06876 1.84757C6.88627 1.51597 6.5371 1.31343 6.1583 1.31341L3.00628 1.31317H3.00619ZM7.66106 0.854565C7.58526 0.721769 7.53419 0.569797 7.42658 0.461187C7.33292 0.366655 7.20533 0.313486 7.07211 0.313476L3.00837 0.313173L3.00828 0.313173C1.84808 0.313304 0.880979 1.23089 0.878658 2.39275L0.837597 22.9474C0.835276 24.1092 1.79871 25.0266 2.95891 25.0265L7.02257 25.026C7.19332 25.026 7.35244 24.9388 7.44456 24.7949C7.64555 24.4808 7.82788 24.1599 7.9972 23.862L7.99731 23.8618L7.99799 23.8606C8.04133 23.7843 8.08382 23.7096 8.12555 23.6368C8.33565 23.2705 8.52883 22.9506 8.73887 22.6816C9.1409 22.1669 9.57812 21.867 10.2798 21.867C10.9786 21.8669 11.4004 22.1637 11.7946 22.6786C12.0015 22.9489 12.192 23.2694 12.4051 23.6388L12.4734 23.7575L12.4734 23.7575C12.6633 24.0878 12.8711 24.4491 13.1103 24.8049C13.203 24.9427 13.3582 25.0253 13.5244 25.0253L17.5881 25.0248C18.7483 25.0247 19.7154 24.1071 19.7177 22.9452L19.7588 2.39062C19.7611 1.22876 18.7977 0.311393 17.6375 0.311523L13.5722 0.311982C13.4335 0.311997 13.301 0.369597 13.2062 0.47102C13.1166 0.566901 13.0654 0.692531 12.9941 0.802681C12.8036 1.09688 12.6346 1.38699 12.4783 1.65508L12.4783 1.6551L12.432 1.73456C12.2147 2.10704 12.0243 2.42647 11.8184 2.69521C11.6153 2.96037 11.4125 3.15497 11.1839 3.28548C10.9602 3.41315 10.6861 3.49423 10.3165 3.49427C9.60952 3.49435 9.16317 3.19657 8.76081 2.68762C8.55087 2.42206 8.35825 2.10413 8.1533 1.73962C8.08979 1.62667 8.02421 1.50755 7.95664 1.38482C7.86195 1.21283 7.76334 1.03374 7.66106 0.854565ZM4.92908 7.15609C4.92971 6.87995 5.15408 6.65609 5.43022 6.65609L8.68307 6.65609C8.95921 6.65609 9.18256 6.87995 9.18193 7.15609C9.1813 7.43223 8.95693 7.65609 8.68079 7.65609L5.42794 7.65609C5.1518 7.65609 4.92845 7.43223 4.92908 7.15609ZM11.9354 6.65535C11.6593 6.65535 11.4349 6.8792 11.4343 7.15535C11.4336 7.43149 11.657 7.65535 11.9331 7.65535L15.186 7.65535C15.4621 7.65535 15.6865 7.43149 15.6871 7.15535C15.6877 6.87921 15.4644 6.65535 15.1883 6.65535L11.9354 6.65535ZM4.9082 18.2073C4.90883 17.9312 5.1332 17.7073 5.40934 17.7073L8.66219 17.7073C8.93833 17.7073 9.16168 17.9312 9.16105 18.2073C9.16042 18.4835 8.93605 18.7073 8.65991 18.7073L5.40706 18.7073C5.13092 18.7073 4.90757 18.4835 4.9082 18.2073ZM11.915 17.7066C11.6389 17.7066 11.4145 17.9305 11.4139 18.2066C11.4132 18.4827 11.6366 18.7066 11.9127 18.7066L15.1656 18.7066C15.4417 18.7066 15.6661 18.4827 15.6667 18.2066C15.6674 17.9305 15.444 17.7066 15.1679 17.7066H11.915Z"/>
</mask>
<path d="M1.87866 2.39264L2.87866 2.39281L1.87866 2.39264ZM3.00619 1.31317L3.00801 0.313173L3.00782 0.313173L3.00619 1.31317ZM1.8376 22.9473L0.837598 22.9471L0.837598 22.9471L1.8376 22.9473ZM2.96091 24.0265L2.95919 25.0265H2.9592L2.96091 24.0265ZM7.12139 23.3809L6.25218 22.8879L6.24606 22.899L7.12139 23.3809ZM7.25835 23.1407L6.39112 22.6444L6.39112 22.6444L7.25835 23.1407ZM7.95124 22.0671L8.73893 22.6818L8.73894 22.6818L7.95124 22.0671ZM10.2818 20.867L10.2835 19.867H10.2835L10.2818 20.867ZM12.5891 22.0697L11.7947 22.6785H11.7947L12.5891 22.0697ZM13.2716 23.1379L14.1384 22.6377L14.1381 22.6372L13.2716 23.1379ZM17.5901 24.0248L17.5884 25.0248H17.5884L17.5901 24.0248ZM18.7177 22.9454L19.7177 22.9455L18.7177 22.9454ZM18.7588 2.39073L17.7588 2.39056L17.7588 2.39056L18.7588 2.39073ZM17.6355 1.31152L17.6338 2.31152L17.6355 1.31152ZM13.2955 2.23715L14.159 2.73992L14.1591 2.73969L13.2955 2.23715ZM12.6118 3.30223L13.4053 3.90939L13.4053 3.90939L12.6118 3.30223ZM11.6782 4.15372L11.1837 3.28545L11.1837 3.28545L11.6782 4.15372ZM10.3145 4.49427L10.3162 3.49427L10.3145 4.49427ZM7.97584 3.3088L7.19093 3.92985L7.19093 3.92985L7.97584 3.3088ZM7.28138 2.23112L8.15326 1.73981L8.15326 1.73981L7.28138 2.23112ZM3.00628 1.31317L3.00818 0.313173H3.0081L3.00628 1.31317ZM7.07211 0.313476L7.07022 1.31347L7.07211 0.313476ZM3.00837 0.313173L3.01027 -0.686825H3.01008L3.00837 0.313173ZM3.00828 0.313173L3.00657 1.31317H3.00657L3.00828 0.313173ZM0.878658 2.39275L1.87866 2.39292L0.878658 2.39275ZM0.837597 22.9474L-0.162402 22.9472L0.837597 22.9474ZM2.95891 25.0265L2.9572 26.0265H2.9572L2.95891 25.0265ZM7.02257 25.026L7.02429 24.026H7.02429L7.02257 25.026ZM7.44456 24.7949L8.28658 25.3328L8.28658 25.3328L7.44456 24.7949ZM7.9972 23.862L8.8664 24.3549L8.86721 24.3534L7.9972 23.862ZM7.99731 23.8618L7.1281 23.3689L7.1273 23.3703L7.99731 23.8618ZM7.99799 23.8606L7.12878 23.3677L7.12877 23.3678L7.99799 23.8606ZM8.12555 23.6368L8.99279 24.1331L8.99279 24.1331L8.12555 23.6368ZM8.73887 22.6816L7.95118 22.067L7.95118 22.067L8.73887 22.6816ZM10.2798 21.867L10.2815 20.867H10.2815L10.2798 21.867ZM11.7946 22.6786L11.0002 23.2874L11.0002 23.2874L11.7946 22.6786ZM12.4051 23.6388L13.272 23.1388L13.2716 23.1381L12.4051 23.6388ZM12.4734 23.7575L11.6065 24.2575L11.6106 24.2648L11.6149 24.272L12.4734 23.7575ZM12.4734 23.7575L13.3405 23.2578L13.3362 23.2504L13.3318 23.243L12.4734 23.7575ZM13.1103 24.8049L12.2802 25.3639L12.2802 25.3639L13.1103 24.8049ZM13.5244 25.0253L13.5262 24.0253H13.5261L13.5244 25.0253ZM17.5881 25.0248L17.5864 26.0248L17.5881 25.0248ZM19.7177 22.9452L18.7177 22.9451L18.7177 22.9451L19.7177 22.9452ZM19.7588 2.39062L20.7588 2.39079L20.7588 2.39079L19.7588 2.39062ZM17.6375 0.311523L17.6392 -0.688475L17.6375 0.311523ZM13.5722 0.311982L13.5705 1.31198L13.5722 0.311982ZM12.4783 1.65508L13.3094 2.20978L13.3265 2.18409L13.3421 2.15739L12.4783 1.65508ZM12.4783 1.6551L11.6473 1.1004L11.6302 1.12601L11.6146 1.15263L12.4783 1.6551ZM12.432 1.73456L13.2955 2.23733L13.2957 2.23702L12.432 1.73456ZM11.8184 2.69521L11.025 2.08805L11.025 2.08805L11.8184 2.69521ZM11.1839 3.28548L10.6894 2.41722L10.6894 2.41722L11.1839 3.28548ZM10.3165 3.49427L10.3182 2.49427L10.3165 3.49427ZM8.76081 2.68762L9.54572 2.06657L9.54571 2.06657L8.76081 2.68762ZM8.1533 1.73962L7.28142 2.23093L7.28142 2.23093L8.1533 1.73962ZM7.95664 1.38482L8.83285 0.901301L7.95664 1.38482ZM5.43022 6.65609L5.4284 7.65609L5.43022 6.65609ZM4.92908 7.15609L3.92908 7.15563L4.92908 7.15609ZM8.68307 6.65609L8.6849 5.65609L8.68307 6.65609ZM9.18193 7.15609L8.18193 7.15563L9.18193 7.15609ZM8.68079 7.65609L8.68261 6.65609L8.68079 7.65609ZM5.42794 7.65609L5.42612 8.65609L5.42794 7.65609ZM11.4343 7.15535L12.4343 7.1558L11.4343 7.15535ZM11.9354 6.65535L11.9372 5.65535L11.9354 6.65535ZM11.9331 7.65535L11.935 6.65535L11.9331 7.65535ZM15.186 7.65535L15.1841 8.65534L15.186 7.65535ZM15.1883 6.65535L15.1864 7.65535L15.1883 6.65535ZM5.40934 17.7073L5.40752 18.7073H5.40752L5.40934 17.7073ZM8.66219 17.7073L8.66401 16.7073H8.66401L8.66219 17.7073ZM9.16105 18.2073L10.161 18.2078L10.161 18.2078L9.16105 18.2073ZM8.65991 18.7073L8.66173 17.7073H8.66173L8.65991 18.7073ZM5.40706 18.7073L5.40524 19.7073H5.40524L5.40706 18.7073ZM11.9127 18.7066L11.9109 19.7066H11.9109L11.9127 18.7066ZM15.1656 18.7066L15.1674 17.7066H15.1674L15.1656 18.7066ZM15.6667 18.2066L14.6667 18.2061L15.6667 18.2066ZM7.66106 0.854565L6.79238 1.35152L7.66106 0.854565ZM6.1583 1.31341L6.15641 2.3134L6.1583 1.31341ZM12.9941 0.802681L13.8332 1.34502L12.9941 0.802681ZM14.6913 24.0251L14.6896 25.0251L14.6913 24.0251ZM6.00088 24.0261L6.00259 23.0261L6.00088 24.0261ZM2.87866 2.39281C2.87867 2.38561 2.89794 2.31319 3.00455 2.31317L3.00782 0.313173C1.84403 0.313394 0.880972 1.23446 0.878658 2.39246L2.87866 2.39281ZM2.8376 22.9474L2.87866 2.39281L0.878658 2.39246L0.837598 22.9471L2.8376 22.9474ZM2.96262 23.0265C2.8562 23.0265 2.83758 22.9544 2.8376 22.9474L0.837598 22.9471C0.835284 24.1054 1.79513 25.0266 2.95919 25.0265L2.96262 23.0265ZM6.00259 23.0261L2.96262 23.0265L2.9592 25.0265L5.99917 25.0261L6.00259 23.0261ZM6.24606 22.899L6.24603 22.899L7.9967 23.8629L7.99673 23.8628L6.24606 22.899ZM6.39112 22.6444C6.3439 22.7267 6.29745 22.8084 6.25225 22.8879L7.99054 23.8739C8.03603 23.7938 8.0806 23.7154 8.12559 23.637L6.39112 22.6444ZM7.16355 21.4525C6.85807 21.8436 6.6044 22.2725 6.39112 22.6444L8.12559 23.637C8.33558 23.2708 8.52882 22.9508 8.73893 22.6818L7.16355 21.4525ZM10.2835 19.867C8.79679 19.8671 7.82791 20.6019 7.16355 21.4525L8.73894 22.6818C9.14183 22.1659 9.57935 21.867 10.2801 21.867L10.2835 19.867ZM13.3836 21.4609C12.7327 20.6107 11.7793 19.8668 10.2835 19.867L10.2801 21.867C10.9777 21.8669 11.3997 22.1626 11.7947 22.6785L13.3836 21.4609ZM14.1381 22.6372C13.9292 22.2749 13.6798 21.8479 13.3836 21.4609L11.7947 22.6785C12.0017 22.9488 12.1922 23.2694 12.4051 23.6386L14.1381 22.6372ZM14.207 22.7569L14.1384 22.6377L12.4048 23.6381L12.4734 23.7572L14.207 22.7569ZM17.5918 23.0248L14.693 23.0251L14.6896 25.0251L17.5884 25.0248L17.5918 23.0248ZM17.7177 22.9452C17.7177 22.9524 17.6984 23.0248 17.5918 23.0248L17.5884 25.0248C18.7523 25.0247 19.7154 24.1036 19.7177 22.9455L17.7177 22.9452ZM17.7588 2.39056L17.7177 22.9452L19.7177 22.9455L19.7588 2.39091L17.7588 2.39056ZM17.6338 2.31152C17.7402 2.31151 17.7588 2.38361 17.7588 2.39056L19.7588 2.39091C19.7611 1.2326 18.8013 0.311392 17.6372 0.311523L17.6338 2.31152ZM14.847 2.31183L17.6338 2.31152L17.6372 0.311523L14.8504 0.311838L14.847 2.31183ZM14.1591 2.73969L14.2025 2.66528L12.4752 1.6602L12.4318 1.73461L14.1591 2.73969ZM13.4053 3.90939C13.6992 3.52563 13.9492 3.09938 14.159 2.73992L12.432 1.73437C12.2148 2.10656 12.0243 2.42621 11.8184 2.69507L13.4053 3.90939ZM12.1727 5.02198C12.7096 4.71558 13.1031 4.304 13.4053 3.90939L11.8184 2.69507C11.6153 2.96025 11.4124 3.1549 11.1837 3.28545L12.1727 5.02198ZM10.3128 5.49426C10.9995 5.49419 11.6209 5.33695 12.1727 5.02198L11.1837 3.28545C10.96 3.41312 10.6859 3.49423 10.3162 3.49427L10.3128 5.49426ZM7.19093 3.92985C7.86559 4.78324 8.84197 5.49443 10.3128 5.49426L10.3162 3.49427C9.61018 3.49435 9.16373 3.1975 8.76074 2.68775L7.19093 3.92985ZM6.4095 2.72243C6.6246 3.10498 6.8796 3.53603 7.19093 3.92985L8.76074 2.68775C8.55077 2.42216 8.35813 2.10417 8.15326 1.73981L6.4095 2.72243ZM6.19246 2.33094C6.26195 2.4572 6.33429 2.58866 6.4095 2.72243L8.15326 1.73981C8.08322 1.61524 8.0152 1.49166 7.94506 1.3642L6.19246 2.33094ZM3.00438 2.31317L6.15641 2.3134L6.1602 0.313408L3.00818 0.313173L3.00438 2.31317ZM3.00436 2.31317H3.00446L3.0081 0.313173H3.00801L3.00436 2.31317ZM7.07022 1.31347C6.93699 1.31346 6.80932 1.26029 6.71557 1.16566L8.13759 -0.243288C7.85652 -0.526977 7.47366 -0.686492 7.07401 -0.686522L7.07022 1.31347ZM3.00647 1.31317L7.07022 1.31347L7.07401 -0.686522L3.01027 -0.686825L3.00647 1.31317ZM3.00657 1.31317L3.00666 1.31317L3.01008 -0.686825H3.00999L3.00657 1.31317ZM1.87866 2.39292C1.87982 1.81209 2.36924 1.31324 3.00657 1.31317L3.00999 -0.686825C1.32692 -0.686636 -0.11786 0.649698 -0.121342 2.39258L1.87866 2.39292ZM1.8376 22.9475L1.87866 2.39292L-0.121342 2.39258L-0.162402 22.9472L1.8376 22.9475ZM2.96062 24.0265C2.3235 24.0265 1.83644 23.5281 1.8376 22.9475L-0.162402 22.9472C-0.165884 24.6903 1.27393 26.0267 2.9572 26.0265L2.96062 24.0265ZM7.02429 24.026L2.96062 24.0265L2.9572 26.0265L7.02086 26.026L7.02429 24.026ZM6.60254 24.257C6.69457 24.1132 6.85355 24.026 7.02429 24.026L7.02086 26.026C7.53309 26.026 8.01031 25.7645 8.28658 25.3328L6.60254 24.257ZM7.12799 23.3691C6.95684 23.6703 6.7871 23.9686 6.60254 24.257L8.28658 25.3328C8.50399 24.993 8.69892 24.6496 8.8664 24.3549L7.12799 23.3691ZM7.1273 23.3703L7.12719 23.3705L8.86721 24.3534L8.86733 24.3532L7.1273 23.3703ZM7.12877 23.3678L7.1281 23.3689L8.86653 24.3546L8.8672 24.3535L7.12877 23.3678ZM7.25832 23.1405C7.21543 23.2153 7.17195 23.2918 7.12878 23.3677L8.86719 24.3535C8.91071 24.2769 8.95221 24.2039 8.99279 24.1331L7.25832 23.1405ZM7.95118 22.067C7.69333 22.3971 7.46983 22.7717 7.25832 23.1405L8.99279 24.1331C9.20147 23.7693 9.36433 23.504 9.52656 23.2963L7.95118 22.067ZM10.2815 20.867C9.77815 20.867 9.3208 20.9773 8.90732 21.2103C8.50512 21.4369 8.19997 21.7484 7.95118 22.067L9.52656 23.2963C9.6798 23.1001 9.79427 23.0043 9.88661 22.9523C9.96767 22.9066 10.0798 22.867 10.2781 22.867L10.2815 20.867ZM12.5891 22.0698C12.3469 21.7535 12.0483 21.4399 11.6494 21.2115C11.2381 20.9762 10.7828 20.8669 10.2815 20.867L10.2781 22.867C10.4755 22.8669 10.5806 22.9061 10.6535 22.9478C10.7387 22.9966 10.8481 23.0888 11.0002 23.2874L12.5891 22.0698ZM13.2716 23.1381C13.0608 22.7726 12.8408 22.3986 12.5891 22.0698L11.0002 23.2874C11.1623 23.4992 11.3232 23.7661 11.5386 24.1396L13.2716 23.1381ZM13.3403 23.2574L13.272 23.1388L11.5382 24.1389L11.6065 24.2575L13.3403 23.2574ZM13.3318 23.243L13.3318 23.243L11.6149 24.272L11.615 24.272L13.3318 23.243ZM13.9405 24.2458C13.7237 23.9235 13.5326 23.5918 13.3405 23.2578L11.6063 24.2573C11.7941 24.5837 12.0185 24.9747 12.2802 25.3639L13.9405 24.2458ZM13.5261 24.0253C13.6924 24.0253 13.8477 24.1079 13.9405 24.2458L12.2802 25.3639C12.5583 25.7775 13.024 26.0253 13.5227 26.0253L13.5261 24.0253ZM17.5898 24.0248L13.5262 24.0253L13.5227 26.0253L17.5864 26.0248L17.5898 24.0248ZM18.7177 22.9451C18.7166 23.5259 18.2271 24.0247 17.5898 24.0248L17.5864 26.0248C19.2695 26.0246 20.7142 24.6883 20.7177 22.9454L18.7177 22.9451ZM18.7588 2.39045L18.7177 22.9451L20.7177 22.9454L20.7588 2.39079L18.7588 2.39045ZM17.6358 1.31152C18.2729 1.31145 18.7599 1.80986 18.7588 2.39045L20.7588 2.39079C20.7623 0.647666 19.3225 -0.688665 17.6392 -0.688475L17.6358 1.31152ZM13.5705 1.31198L17.6358 1.31152L17.6392 -0.688475L13.5739 -0.688016L13.5705 1.31198ZM13.9363 1.15305C13.8416 1.25438 13.7091 1.31196 13.5705 1.31198L13.5739 -0.688016C13.1579 -0.68797 12.7603 -0.515181 12.4761 -0.211014L13.9363 1.15305ZM13.3421 2.15739C13.4997 1.88696 13.6575 1.61655 13.8332 1.34502L12.1549 0.260339C11.9498 0.577201 11.7694 0.887017 11.6146 1.15277L13.3421 2.15739ZM13.3094 2.2098L13.3094 2.20978L11.6473 1.10038L11.6473 1.1004L13.3094 2.2098ZM13.2957 2.23702L13.342 2.15756L11.6146 1.15263L11.5683 1.23209L13.2957 2.23702ZM12.6119 3.30237C12.8619 2.97598 13.0822 2.60284 13.2955 2.23733L11.5685 1.23179C11.3471 1.61123 11.1867 1.87695 11.025 2.08805L12.6119 3.30237ZM11.6784 4.15375C12.0611 3.93531 12.3592 3.63223 12.6119 3.30237L11.025 2.08805C10.8714 2.2885 10.764 2.37464 10.6894 2.41722L11.6784 4.15375ZM10.3148 4.49427C10.8431 4.49421 11.2908 4.37498 11.6784 4.15375L10.6894 2.41722C10.6536 2.43767 10.613 2.45519 10.5605 2.46852C10.5067 2.48217 10.4292 2.49426 10.3182 2.49427L10.3148 4.49427ZM7.9759 3.30866C8.22768 3.62714 8.5361 3.93473 8.94018 4.15764C9.35397 4.38591 9.81155 4.49432 10.3148 4.49427L10.3182 2.49427C10.1145 2.49429 9.9954 2.45386 9.90868 2.40602C9.81223 2.35282 9.6963 2.25704 9.54572 2.06657L7.9759 3.30866ZM7.28142 2.23093C7.49131 2.60423 7.71518 2.97886 7.9759 3.30866L9.54571 2.06657C9.38657 1.86525 9.22519 1.60404 9.02518 1.24831L7.28142 2.23093ZM7.08042 1.86834C7.14754 1.99026 7.21533 2.11339 7.28142 2.23093L9.02518 1.24831C8.96425 1.13995 8.90088 1.02485 8.83285 0.901301L7.08042 1.86834ZM6.79238 1.35152C6.89023 1.52293 6.98517 1.69534 7.08042 1.86834L8.83285 0.901301C8.73872 0.730321 8.63646 0.544546 8.52975 0.35761L6.79238 1.35152ZM5.43205 5.65609C4.6038 5.65609 3.93097 6.32738 3.92908 7.15563L5.92908 7.15654C5.92845 7.43251 5.70436 7.65609 5.4284 7.65609L5.43205 5.65609ZM8.6849 5.65609L5.43205 5.65609L5.4284 7.65609L8.68125 7.65609L8.6849 5.65609ZM10.1819 7.15654C10.1838 6.32794 9.5135 5.65609 8.6849 5.65609L8.68125 7.65609C8.40492 7.65609 8.1813 7.43195 8.18193 7.15563L10.1819 7.15654ZM8.67897 8.65608C9.50721 8.65608 10.18 7.98479 10.1819 7.15654L8.18193 7.15563C8.18256 6.87967 8.40665 6.65609 8.68261 6.65609L8.67897 8.65608ZM5.42612 8.65609L8.67897 8.65608L8.68261 6.65609L5.42977 6.65609L5.42612 8.65609ZM3.92908 7.15563C3.92719 7.98423 4.59751 8.65609 5.42612 8.65609L5.42977 6.65609C5.70609 6.65609 5.92971 6.88022 5.92908 7.15654L3.92908 7.15563ZM12.4343 7.1558C12.4336 7.43177 12.2095 7.65535 11.9336 7.65535L11.9372 5.65535C11.109 5.65535 10.4362 6.32664 10.4343 7.15489L12.4343 7.1558ZM11.935 6.65535C12.2113 6.65535 12.4349 6.87948 12.4343 7.1558L10.4343 7.15489C10.4324 7.98349 11.1027 8.65534 11.9313 8.65534L11.935 6.65535ZM15.1878 6.65535L11.935 6.65535L11.9313 8.65534H15.1841L15.1878 6.65535ZM14.6871 7.15489C14.6877 6.87893 14.9118 6.65535 15.1878 6.65535L15.1841 8.65534C16.0124 8.65534 16.6852 7.98405 16.6871 7.1558L14.6871 7.15489ZM15.1864 7.65535C14.9101 7.65535 14.6865 7.43121 14.6871 7.15489L16.6871 7.1558C16.689 6.3272 16.0187 5.65535 15.1901 5.65535L15.1864 7.65535ZM11.9336 7.65535L15.1864 7.65535L15.1901 5.65535L11.9372 5.65535L11.9336 7.65535ZM5.41117 16.7073C4.58292 16.7073 3.91009 17.3786 3.9082 18.2069L5.9082 18.2078C5.90757 18.4838 5.68348 18.7073 5.40752 18.7073L5.41117 16.7073ZM8.66401 16.7073L5.41117 16.7073L5.40752 18.7073L8.66036 18.7073L8.66401 16.7073ZM10.161 18.2078C10.1629 17.3792 9.49262 16.7073 8.66401 16.7073L8.66036 18.7073C8.38404 18.7073 8.16042 18.4832 8.16105 18.2069L10.161 18.2078ZM8.65808 19.7073C9.48633 19.7073 10.1592 19.036 10.161 18.2078L8.16105 18.2069C8.16168 17.9309 8.38577 17.7073 8.66173 17.7073L8.65808 19.7073ZM5.40524 19.7073L8.65808 19.7073L8.66173 17.7073L5.40889 17.7073L5.40524 19.7073ZM3.9082 18.2069C3.90631 19.0355 4.57663 19.7073 5.40524 19.7073L5.40889 17.7073C5.68521 17.7073 5.90883 17.9315 5.9082 18.2078L3.9082 18.2069ZM12.4139 18.2071C12.4132 18.483 12.1892 18.7066 11.9132 18.7066L11.9168 16.7066C11.0886 16.7066 10.4158 17.3779 10.4139 18.2061L12.4139 18.2071ZM11.9146 17.7066C12.1909 17.7066 12.4145 17.9307 12.4139 18.2071L10.4139 18.2061C10.412 19.0347 11.0823 19.7066 11.9109 19.7066L11.9146 17.7066ZM15.1674 17.7066L11.9146 17.7066L11.9109 19.7066L15.1638 19.7066L15.1674 17.7066ZM14.6667 18.2061C14.6674 17.9302 14.8914 17.7066 15.1674 17.7066L15.1638 19.7066C15.992 19.7066 16.6648 19.0353 16.6667 18.2071L14.6667 18.2061ZM15.166 18.7066C14.8897 18.7066 14.6661 18.4825 14.6667 18.2061L16.6667 18.2071C16.6686 17.3785 15.9983 16.7066 15.1697 16.7066L15.166 18.7066ZM11.9132 18.7066H15.166L15.1697 16.7066H11.9168L11.9132 18.7066ZM6.71557 1.16566C6.66479 1.11441 6.6497 1.07583 6.66966 1.11395C6.68049 1.13462 6.68866 1.15172 6.71113 1.19714C6.72977 1.23481 6.758 1.29129 6.79238 1.35152L8.52975 0.35761C8.49433 0.295569 8.52587 0.344152 8.44183 0.183667C8.3904 0.0854466 8.29598 -0.0834276 8.13759 -0.243289L6.71557 1.16566ZM7.94506 1.3642C7.58386 0.707891 6.89618 0.313463 6.1602 0.313408L6.15641 2.3134C6.17803 2.31341 6.18867 2.32404 6.19246 2.33094L7.94506 1.3642ZM14.8504 0.311838C13.8935 0.311946 12.9768 0.799673 12.4751 1.66031L14.2025 2.66517C14.326 2.45341 14.5636 2.31187 14.847 2.31183L14.8504 0.311838ZM12.4761 -0.211013C12.3514 -0.077515 12.2705 0.0579965 12.2269 0.133626C12.2089 0.164963 12.1804 0.216293 12.174 0.227687C12.1611 0.2505 12.1562 0.258322 12.1549 0.260339L13.8332 1.34502C13.8676 1.29196 13.8958 1.24278 13.9154 1.20806C13.9249 1.19121 13.9351 1.17295 13.9417 1.1611C13.9493 1.14753 13.9548 1.13778 13.9596 1.12937C13.9819 1.09068 13.9714 1.11544 13.9363 1.15305L12.4761 -0.211013ZM12.4732 23.7569C12.9367 24.5625 13.7913 25.0252 14.6896 25.0251L14.693 23.0251C14.4773 23.0252 14.2988 22.9164 14.2072 22.7572L12.4732 23.7569ZM5.99917 25.0261C6.81131 25.026 7.57823 24.5992 7.9905 23.8739L6.25222 22.888C6.2067 22.968 6.11608 23.0261 6.00259 23.0261L5.99917 25.0261Z" fill="url(#paint0_linear)" mask="url(#path-1-inside-1)"/>
<defs>
<linearGradient id="paint0_linear" x1="10.3207" y1="0.311523" x2="10.3207" y2="25.0265" gradientUnits="userSpaceOnUse">
<stop stop-color="#B727F3"/>
<stop offset="1" stop-color="#DB4CAA"/>
</linearGradient>
</defs>
</svg>
