<svg width="22" height="16" viewBox="0 0 22 16" fill="none" xmlns="http://www.w3.org/2000/svg">
<path d="M1.66797 0.916504C1.25376 0.916504 0.917969 1.25229 0.917969 1.6665C0.917969 2.08072 1.25376 2.4165 1.66797 2.4165V0.916504ZM20.3346 2.4165C20.7488 2.4165 21.0846 2.08072 21.0846 1.6665C21.0846 1.25229 20.7488 0.916504 20.3346 0.916504V2.4165ZM1.66797 2.4165H20.3346V0.916504H1.66797V2.4165Z" fill="white"/>
<path d="M1.66797 7.25C1.25376 7.25 0.917969 7.58579 0.917969 8C0.917969 8.41421 1.25376 8.75 1.66797 8.75V7.25ZM20.3346 8.75C20.7488 8.75 21.0846 8.41421 21.0846 8C21.0846 7.58579 20.7488 7.25 20.3346 7.25V8.75ZM1.66797 8.75H20.3346V7.25H1.66797V8.75Z" fill="white"/>
<path d="M1.66797 13.583C1.25376 13.583 0.917969 13.9188 0.917969 14.333C0.917969 14.7472 1.25376 15.083 1.66797 15.083V13.583ZM20.3346 15.083C20.7488 15.083 21.0846 14.7472 21.0846 14.333C21.0846 13.9188 20.7488 13.583 20.3346 13.583V15.083ZM1.66797 15.083H20.3346V13.583H1.66797V15.083Z" fill="white"/>
</svg>
